<svg width="474" height="94" viewBox="0 0 474 94" fill="none" xmlns="http://www.w3.org/2000/svg">
<path fill-rule="evenodd" clip-rule="evenodd" d="M84.8883 15.3789C83.9419 10.3453 81.5199 6.23478 77.5341 3.54631C63.986 -5.592 37.5003 5.16005 18.3766 27.5616C-0.747087 49.9633 -5.26699 75.5314 8.2811 84.6697C18.0149 91.2352 34.4268 87.5336 49.9887 76.6211C50.935 81.6547 53.357 85.7652 57.3429 88.4537C66.8469 94.8643 82.7178 91.4866 97.9475 81.1655C99.2395 84.1466 101.225 86.628 103.932 88.4537C113.846 95.1412 130.689 91.1766 146.506 79.7896C147.753 83.3866 149.912 86.3539 153.025 88.4537C162.883 95.1028 179.59 91.2217 195.326 79.9849C196.583 83.4941 198.72 86.392 201.777 88.4537C211.281 94.8643 227.152 91.4866 242.382 81.1655C243.674 84.1465 245.659 86.628 248.366 88.4537C257.519 94.6275 272.577 91.7228 287.28 82.2808C288.522 81.5581 289.765 80.7877 291.004 79.9711C292.26 83.4865 294.399 86.3893 297.459 88.4537C297.887 88.7426 298.329 89.0116 298.782 89.261C299.273 89.6848 299.793 90.0828 300.343 90.4537C309.847 96.8643 325.718 93.4866 340.947 83.1655C342.239 86.1465 344.225 88.628 346.932 90.4537C356.846 97.1412 373.689 93.1766 389.506 81.7896C390.753 85.3866 392.912 88.3539 396.025 90.4537C409.573 99.592 436.059 88.84 455.182 66.4384C474.306 44.0368 478.826 18.4686 465.278 9.33032C455.363 2.64285 438.52 6.60746 422.704 17.9945C421.457 14.3974 419.298 11.4301 416.185 9.33032C406.681 2.91974 390.81 6.29744 375.58 16.6185C374.288 13.6375 372.303 11.156 369.596 9.33032C369.168 9.04141 368.726 8.77238 368.273 8.52298C367.782 8.09922 367.262 7.70124 366.712 7.33032C357.391 1.04341 341.947 4.17074 326.99 14.0289C325.733 10.5135 323.595 7.61068 320.534 5.54631C311.381 -0.62746 296.323 2.2772 281.62 11.7192C280.083 12.6136 278.545 13.581 277.014 14.6185C275.722 11.6375 273.737 9.15602 271.03 7.33032C261.296 0.764813 244.884 4.4664 229.322 15.3789C228.376 10.3453 225.954 6.2348 221.968 3.54631C211.836 -3.28786 194.468 1.0025 178.355 12.9705C177.094 10.716 175.376 8.80825 173.185 7.33032C163.681 0.919735 147.81 4.29744 132.58 14.6185C131.288 11.6375 129.303 9.15602 126.596 7.33032C116.862 0.764813 100.45 4.4664 84.8883 15.3789Z" fill="#C5FACC"/>
</svg>
