<svg width="268" height="124" viewBox="0 0 268 124" fill="none" xmlns="http://www.w3.org/2000/svg">
<path fill-rule="evenodd" clip-rule="evenodd" d="M100.639 16.1808C99.1222 11.6439 96.6092 7.89091 93.0562 5.19987C76.8684 -7.06067 45.2223 7.36496 22.3726 37.4204C-0.477143 67.4759 -5.8777 101.78 10.3101 114.04C20.5293 121.78 36.9092 118.885 53.3474 108.136C54.8642 112.673 57.3772 116.426 60.9302 119.117C72.286 127.718 91.249 123.186 109.446 109.339C110.99 113.338 113.362 116.668 116.596 119.117C128.443 128.09 148.568 122.77 167.466 107.492C168.956 112.318 171.536 116.3 175.255 119.117C191.443 131.378 223.089 116.952 245.939 86.8966C268.789 56.8411 274.189 22.5372 258.001 10.2767C246.155 1.30423 226.03 6.62359 207.132 21.9015C205.642 17.0753 203.062 13.094 199.342 10.2767C187.987 1.67582 169.024 6.2075 150.826 20.0548C149.283 16.0554 146.91 12.7261 143.676 10.2767C133.457 2.53666 117.077 5.43193 100.639 16.1808Z" fill="#C5FACC"/>
</svg>
